# xmcd
#
# Track frame offsets: 
#        150
#        15992
#        28606
#        50669
#        68644
#        93162
#
# Disc length: 1548 seconds
#
# Revision: 0
# Processed by: cddbd v1.5.2PL0 Copyright (c) Steve Scherf et al.
# Submitted via: ExactAudioCopy v1.3
#
DISCID=3e060a06
DTITLE=Big Poppa Stampley - Jukebox Blues
DYEAR=2019
DGENRE=Blues
TTITLE0=This Beer Ain't Working
TTITLE1=Sittin' on Top of the World
TTITLE2=Moon over East St. Louis
TTITLE3=Racehorse Blues
TTITLE4=The Universal Soul of Man
TTITLE5=Keep This Love Alive
EXTD=
EXTT0=
EXTT1=
EXTT2=
EXTT3=
EXTT4=
EXTT5=
PLAYORDER=
